#!OML:ASF H:\Terrain\Patient Classification 1\Walking\liu\liu.ASF
:FULLY-SPECIFIED
:DEGREES
64
root 8.75131 16.1584 -26.1307 7.6295 -3.87898 1.28936
lowerback -1.7076 0.771362 -4.82284
upperback -0.111664 1.10871 1.52968
thorax 0.721205 0.537919 4.30953
lowerneck -22.7382 -4.27995 -13.1384
upperneck 16.2214 -4.62358 14.06
head 9.52518 -1.43917 6.4838
rclavicle 1.59525e-014 1.55052e-014
rhumerus -34.2598 13.3275 -87.5458
rradius 29.5312
rwrist -15.7831
rhand -32.8212 -27.2665
rfingers 7.12502
rthumb -6.04155 -57.1604
lclavicle 1.59525e-014 1.55052e-014
lhumerus -33.1916 -4.09753 88.7344
lradius 20.6998
lwrist 0.661936
lhand -18.5505 -28.3549
lfingers 7.12502
lthumb 7.73897 1.48352
rfemur -31.3024 -5.75877 22.8785
rtibia 65.5558
rfoot -15.1625 -8.53635
rtoes -5.25418
lfemur -19.9605 3.17579 -26.2924
ltibia 33.4696
lfoot -19.8668 5.7579
ltoes -3.78512
65
root 8.75154 16.1659 -25.916 7.62011 -3.19612 1.45506
lowerback -1.66434 0.368061 -4.96053
upperback -0.0866289 0.570836 1.59744
thorax 0.780039 0.265866 4.44697
lowerneck -22.805 -4.15416 -13.4807
upperneck 16.2628 -4.4391 14.5523
head 9.54613 -1.32076 6.7595
rclavicle 6.06293e-015 5.1684e-015
rhumerus -34.8455 12.2159 -86.9482
rradius 28.1681
rwrist -14.2505
rhand -31.8581 -25.7156
rfingers 7.12502
rthumb -5.11176 -55.6339
lclavicle 6.06293e-015 5.1684e-015
lhumerus -32.3278 -6.99016 90.0797
lradius 22.3858
lwrist 3.29506
lhand -17.9457 -27.4585
lfingers 7.12502
lthumb 8.32271 2.35759
rfemur -32.6009 -5.85771 23.0054
rtibia 63.9451
rfoot -15.4842 -8.68965
rtoes -3.64376
lfemur -18.7413 2.55895 -26.4245
ltibia 32.8008
lfoot -20.3695 5.80398
ltoes -3.81041
66
root 8.7481 16.179 -25.7014 7.50561 -2.35571 1.41127
lowerback -1.35326 -0.0154394 -4.89142
upperback -0.113092 0.0417358 1.70115
thorax 0.638326 0.00554773 4.50327
lowerneck -22.8082 -4.06572 -13.5249
upperneck 16.3164 -4.33264 14.6726
head 9.55282 -1.26125 6.83123
rclavicle -1.03865e-014 -1.23246e-014
rhumerus -36.0125 11.5932 -86.58
rradius 27.2602
rwrist -13.7214
rhand -31.5323 -25.7094
rfingers 7.12502
rthumb -4.79712 -55.6351
lclavicle -1.03865e-014 -1.23246e-014
lhumerus -31.7194 -9.74992 91.0943
lradius 24.2311
lwrist 5.28203
lhand -17.5729 -27.1322
lfingers 7.12502
lthumb 8.68251 2.66925
rfemur -33.563 -5.76997 23.2097
rtibia 62.1649
rfoot -16.748 -8.31403
rtoes -3.97265
lfemur -17.3652 1.84529 -26.2839
ltibia 32.0167
lfoot -20.8868 5.9884
ltoes -5.69285
67
root 8.74881 16.1857 -25.4848 7.37945 -1.6912 1.41785
lowerback -1.10631 -0.350365 -4.8042
upperback -0.111975 -0.4182 1.7294
thorax 0.553042 -0.222307 4.47529
lowerneck -22.7513 -3.91589 -13.1218
upperneck 16.2891 -4.18308 14.3141
head 9.48937 -1.20555 6.64624
rclavicle -7.20594e-015 -7.95139e-016
rhumerus -37.2801 11.0117 -86.239
rradius 26.6932
rwrist -13.1276
rhand -31.0256 -27.0648
rfingers 7.12502
rthumb -4.30788 -57.0009
lclavicle -7.20594e-015 -7.95139e-016
lhumerus -31.0297 -12.2414 91.7087
lradius 25.8787
lwrist 6.6572
lhand -17.6943 -27.9611
lfingers 7.12502
lthumb 8.56533 1.84514
rfemur -34.4355 -5.49763 23.2418
rtibia 60.2855
rfoot -18.216 -7.35727
rtoes -5.7753
lfemur -15.8392 1.27237 -26.246
ltibia 30.9825
lfoot -21.1219 6.29354
ltoes -6.48762
68
root 8.75118 16.1963 -25.2653 7.4961 -1.16148 1.58954
lowerback -1.24095 -0.765999 -4.92709
upperback -0.0511908 -0.96417 1.71389
thorax 0.754872 -0.503073 4.5164
lowerneck -22.9516 -3.70503 -12.5646
upperneck 16.2862 -3.95254 13.8671
head 9.46365 -1.10321 6.41845
rclavicle -8.84592e-015 -2.10712e-014
rhumerus -38.2127 10.6444 -85.9374
rradius 26.254
rwrist -12.5089
rhand -30.8934 -25.7294
rfingers 7.12502
rthumb -4.18024 -55.6681
lclavicle -8.84592e-015 -2.10712e-014
lhumerus -30.1114 -14.5287 91.9855
lradius 27.522
lwrist 8.37362
lhand -17.5665 -28.4128
lfingers 7.12502
lthumb 8.68866 1.38834
rfemur -35.6158 -5.30226 23.1165
rtibia 58.3149
rfoot -18.677 -6.6572
rtoes -8.28931
lfemur -14.4406 0.649946 -26.4157
ltibia 29.6607
lfoot -21.267 6.44776
ltoes -5.95267
69
root 8.7471 16.2245 -25.0428 7.72113 -0.680941 1.85035
lowerback -1.39316 -1.17081 -5.19326
upperback -0.1351 -1.49422 1.70452
thorax 0.821388 -0.769466 4.64256
lowerneck -23.0767 -3.56174 -12.302
upperneck 16.4555 -3.78954 13.6285
head 9.50812 -1.0321 6.31639
rclavicle 1.98785e-015 -2.38542e-015
rhumerus -39.3122 10.2588 -85.5186
rradius 25.7681
rwrist -11.5509
rhand -29.758 -22.726
rfingers 7.12502
rthumb -3.08373 -52.6835
lclavicle 1.98785e-015 -2.38542e-015
lhumerus -29.2708 -16.3224 92.0791
lradius 29.2006
lwrist 9.91007
lhand -16.9183 -27.5425
lfingers 7.12502
lthumb 9.31414 2.23178
rfemur -36.8703 -4.9284 22.7404
rtibia 56.1955
rfoot -18.8306 -6.04777
rtoes -10.4245
lfemur -12.9999 0.102709 -26.6568
ltibia 28.1088
lfoot -21.37 6.38759
ltoes -5.88221
70
root 8.74253 16.2531 -24.8185 7.85758 -0.18932 2.08428
lowerback -1.52392 -1.31916 -5.28612
upperback -0.313199 -1.68717 1.74866
thorax 0.738107 -0.859864 4.73518
lowerneck -22.3355 -3.67229 -13
upperneck 16.2969 -3.8613 13.9823
head 9.35498 -1.09726 6.54351
rclavicle 2.1916e-014 1.47101e-014
rhumerus -40.7317 9.00564 -84.2405
rradius 25.0546
rwrist -9.8333
rhand -29.7394 -25.1522
rfingers 7.12502
rthumb -3.0658 -55.1099
lclavicle 2.1916e-014 1.47101e-014
lhumerus -28.6081 -18.3699 92.5917
lradius 30.7197
lwrist 10.7274
lhand -16.4172 -26.5061
lfingers 7.12502
lthumb 9.79762 3.24593
rfemur -37.9184 -4.36264 22.269
rtibia 53.8665
rfoot -19.3182 -5.80322
rtoes -13.0505
lfemur -11.392 -0.336573 -26.8499
ltibia 26.4706
lfoot -21.277 6.44183
ltoes -5.92896
71
root 8.73992 16.2483 -24.5949 7.96692 0.332231 2.15569
lowerback -1.74847 -1.67303 -5.37698
upperback -0.0980837 -2.1435 1.80299
thorax 1.14706 -1.10629 4.81901
lowerneck -22.8798 -3.49248 -12.8057
upperneck 16.4327 -3.64995 14.1044
head 9.46591 -0.955154 6.59942
rclavicle -7.95139e-015 0
rhumerus -41.265 8.21715 -83.3287
rradius 24.3892
rwrist -8.69504
rhand -29.898 -22.4747
rfingers 7.12502
rthumb -3.21897 -52.4302
lclavicle -7.95139e-015 0
lhumerus -27.3706 -20.8375 92.6722
lradius 31.6013
lwrist 10.5115
lhand -18.6804 -27.2646
lfingers 7.12502
lthumb 7.61365 2.57839
rfemur -38.7845 -3.89525 22.0795
rtibia 51.3191
rfoot -19.8177 -6.14749
rtoes -16.1231
lfemur -9.79295 -0.799978 -26.8512
ltibia 24.8243
lfoot -21.2387 6.37064
ltoes -5.00642
72
root 8.73845 16.2154 -24.3726 8.12668 0.876289 2.28354
lowerback -1.86923 -2.01395 -5.47758
upperback -0.0844002 -2.58983 1.79464
thorax 1.2884 -1.33488 4.84564
lowerneck -23.0011 -3.26843 -12.3796
upperneck 16.5578 -3.44331 13.9429
head 9.48757 -0.844323 6.50234
rclavicle 9.29318e-015 7.55382e-015
rhumerus -42.4991 8.26409 -83.233
rradius 24.3255
rwrist -9.70381
rhand -31.1994 -20.0675
rfingers 7.12502
rthumb -4.47564 -50.0002
lclavicle 9.29318e-015 7.55382e-015
lhumerus -26.6248 -23.4833 92.8131
lradius 32.0936
lwrist 9.05056
lhand -22.8018 -28.7718
lfingers 7.12502
lthumb 3.63451 1.17697
rfemur -39.588 -3.65423 21.8915
rtibia 48.6287
rfoot -19.8159 -6.56809
rtoes -18.4913
lfemur -8.30733 -1.14778 -26.925
ltibia 23.2415
lfoot -21.315 6.08689
ltoes -4.69486
73
root 8.7407 16.1993 -24.1447 8.30536 1.42719 2.49462
lowerback -1.99968 -2.2259 -5.51151
upperback -0.190282 -2.86638 1.77341
thorax 1.28742 -1.47077 4.82838
lowerneck -22.7419 -3.26341 -12.1961
upperneck 16.5936 -3.43749 13.5284
head 9.43913 -0.882909 6.31406
rclavicle 1.86858e-014 -2.06736e-014
rhumerus -44.0326 8.22338 -82.9107
rradius 24.2531
rwrist -10.7689
rhand -31.8121 -18.7538
rfingers 7.12502
rthumb -5.06729 -48.6732
lclavicle 1.86858e-014 -2.06736e-014
lhumerus -25.654 -24.9792 92.5593
lradius 33.2272
lwrist 9.43109
lhand -22.6459 -29.0636
lfingers 7.12502
lthumb 3.78505 0.882578
rfemur -40.3626 -3.36171 21.4414
rtibia 45.9247
rfoot -19.6082 -6.83308
rtoes -19.9789
lfemur -6.82759 -1.39686 -27.1057
ltibia 21.7036
lfoot -21.3151 5.92068
ltoes -5.41178
74
root 8.7409 16.2043 -23.9153 8.50562 2.0325 2.64256
lowerback -2.20249 -2.5656 -5.54995
upperback -0.19687 -3.30877 1.82438
thorax 1.45507 -1.69757 4.87397
lowerneck -22.9846 -3.16797 -12.0373
upperneck 16.7514 -3.26807 13.1899
head 9.50111 -0.823238 6.19482
rclavicle 1.94809e-014 1.51076e-014
rhumerus -44.9686 7.58975 -81.733
rradius 24.0345
rwrist -9.26481
rhand -30.2994 -20.9359
rfingers 7.12502
rthumb -3.6066 -50.8851
lclavicle 1.94809e-014 1.51076e-014
lhumerus -24.0276 -25.5309 91.6779
lradius 34.9301
lwrist 12.1447
lhand -18.9841 -28.0255
lfingers 7.12502
lthumb 7.32051 1.82788
rfemur -41.1269 -2.87494 20.8764
rtibia 43.322
rfoot -19.8887 -7.16268
rtoes -20.6686
lfemur -5.22128 -1.66786 -27.1817
ltibia 19.9293
lfoot -21.1582 5.86669
ltoes -6.32883
75
root 8.73782 16.1974 -23.6876 8.64147 2.51932 2.83394
lowerback -2.47284 -2.90855 -5.66973
upperback -0.0656825 -3.746 1.79972
thorax 1.80388 -1.93075 4.87534
lowerneck -23.2376 -2.99533 -11.8588
upperneck 16.755 -3.0497 13.1404
head 9.51179 -0.7074 6.18146
rclavicle -5.19822e-014 5.96354e-015
rhumerus -45.8556 7.19965 -80.8451
rradius 24.1771
rwrist -8.13583
rhand -29.0043 -23.9614
rfingers 7.12502
rthumb -2.35587 -53.9281
lclavicle -5.19822e-014 5.96354e-015
lhumerus -22.2911 -26.4768 90.6823
lradius 36.217
lwrist 13.8419
lhand -17.3432 -27.3374
lfingers 7.12502
lthumb 8.90417 2.45468
rfemur -41.8616 -2.2605 20.1885
rtibia 40.8848
rfoot -20.4696 -7.56349
rtoes -19.5887
lfemur -3.32095 -1.95694 -27.3015
ltibia 17.7295
lfoot -20.8573 5.81048
ltoes -6.71513
76
root 8.73343 16.177 -23.4547 8.63174 2.76152 3.30752
lowerback -2.63827 -2.99595 -6.07456
upperback 0.0352695 -3.83728 1.70102
thorax 2.03318 -1.9891 4.98302
lowerneck -22.8734 -3.10293 -12.2171
upperneck 16.4566 -3.1446 13.3717
head 9.36812 -0.760621 6.29827
rclavicle -2.77802e-014 1.94809e-014
rhumerus -47.2006 7.22509 -80.4466
rradius 24.3138
rwrist -9.53594
rhand -29.5211 -22.4477
rfingers 7.12502
rthumb -2.855 -52.4083
lclavicle -2.77802e-014 1.94809e-014
lhumerus -20.773 -27.9722 90.1137
lradius 36.9822
lwrist 14.2801
lhand -17.3116 -27.7434
lfingers 7.12502
lthumb 8.9347 2.04739
rfemur -42.509 -1.27449 18.9996
rtibia 38.6286
rfoot -21.1509 -8.01951
rtoes -16.1336
lfemur -1.07994 -2.04132 -27.7416
ltibia 15.1958
lfoot -20.3365 5.53539
ltoes -5.62809
77
root 8.72663 16.1517 -23.2232 8.67127 3.00286 3.82395
lowerback -2.73823 -3.12792 -6.60887
upperback 0.105463 -3.98713 1.63562
thorax 2.21469 -2.07709 5.198
lowerneck -22.6808 -3.22616 -12.6156
upperneck 16.2454 -3.26122 13.7098
head 9.29266 -0.810216 6.46489
rclavicle -2.17669e-014 -7.55382e-015
rhumerus -48.4593 7.22633 -79.9908
rradius 24.2197
rwrist -11.1973
rhand -30.4893 -18.908
rfingers 7.12502
rthumb -3.79 -48.8541
lclavicle -2.17669e-014 -7.55382e-015
lhumerus -19.1396 -29.1198 89.3969
lradius 37.5767
lwrist 14.4081
lhand -17.3919 -28.3513
lfingers 7.12502
lthumb 8.85721 1.44285
rfemur -43.2613 0.0521475 17.5441
rtibia 36.553
rfoot -21.9506 -8.63129
rtoes -13.5486
lfemur 1.28194 -1.89713 -28.1821
ltibia 12.2738
lfoot -19.5648 5.14215
ltoes -4.90884
